<svg width="44" height="41" viewBox="0 0 44 41" fill="none" xmlns="http://www.w3.org/2000/svg">
<path d="M42.0203 14.1634C42.0203 9.61875 38.5229 6.68159 33.1125 6.68159C32.4967 6.68159 31.999 7.16043 31.999 7.75043C31.999 8.34042 32.4967 8.81926 33.1125 8.81926C35.1212 8.81926 39.7933 9.33978 39.7933 14.1634C39.7933 17.2427 37.7323 18.6226 35.2793 19.1784C35.0967 19.1004 34.9141 19.0213 34.7137 18.9732C30.8154 18.0379 29.7721 19.5076 23.0912 19.5076C18.4536 19.5076 17.035 14.7972 15.484 11.9125C15.0764 9.72563 13.9619 5.61276 13.07 5.61276C12.3907 5.61276 11.5055 7.77929 10.9176 9.95436C10.1861 8.3137 9.23182 6.68159 8.61607 6.68159C7.82439 6.68159 7.03494 9.3804 6.64411 11.7115C4.56526 13.0732 3.04871 15.0474 3.04871 17.3699C3.04871 20.5764 10.843 22.7141 10.843 22.7141C13.2014 23.8941 13.8973 25.6716 14.523 27.2844C16.819 34.1079 16.5429 39.8154 18.0806 39.8154C19.6183 39.8154 20.8643 36.2274 20.8643 31.7992C20.8643 31.5726 20.8587 31.3503 20.852 31.129C24.365 31.0211 28.3735 29.98 31.7529 30.8159C33.2673 35.6181 33.6314 39.8154 34.7827 39.8154C35.8494 39.8154 36.7758 35.771 37.2424 31.8163C37.2769 31.6656 37.3025 31.4988 37.3025 31.2893L37.3125 31.1739C37.3492 30.833 37.3815 30.4941 37.4105 30.1607L37.9839 24.1837C37.9839 22.9952 37.7011 21.8141 37.1444 20.8671C40.2933 19.7438 42.0203 17.433 42.0203 14.1634Z" fill="#C1694F"/>
<path d="M10.843 15.2323C10.843 15.8222 10.3442 16.3011 9.72956 16.3011C9.11492 16.3011 8.61609 15.8222 8.61609 15.2323C8.61609 14.6423 9.11492 14.1634 9.72956 14.1634C10.3442 14.1634 10.843 14.6423 10.843 15.2323Z" fill="#292F33"/>
<path d="M5.27566 15.6331C4.16219 16.3011 4.16219 18.4388 3.60545 18.4388C3.04871 18.4388 1.93524 17.1818 1.93524 15.6331C1.93524 14.0833 6.64412 14.8112 5.27566 15.6331Z" fill="#292F33"/>
<path d="M5.27567 18.9732C5.07079 18.9732 4.87482 18.8653 4.77683 18.6782C4.63987 18.4142 4.75122 18.0925 5.02625 17.961C7.41019 16.8174 11.9008 17.8755 12.0912 17.9204C12.3896 17.992 12.57 18.2817 12.4954 18.5681C12.4208 18.8535 12.1191 19.0245 11.8207 18.9572C11.7783 18.9465 7.53824 17.9503 5.52397 18.9166C5.4438 18.955 5.35918 18.9732 5.27567 18.9732Z" fill="#662113"/>
<path d="M10.843 21.1108C10.7372 21.1108 10.6303 21.082 10.5346 21.0211C10.5023 20.9997 7.30774 18.9732 5.27565 18.9732C4.96834 18.9732 4.71892 18.7338 4.71892 18.4388C4.71892 18.1438 4.96834 17.9043 5.27565 17.9043C7.64401 17.9043 11.01 20.0409 11.1526 20.1318C11.4076 20.2953 11.4777 20.6267 11.3073 20.8725C11.1993 21.0275 11.0234 21.1108 10.843 21.1108Z" fill="#662113"/>
</svg>
