<svg width="50" height="48" viewBox="0 0 50 48" fill="none" xmlns="http://www.w3.org/2000/svg">
<path d="M34.4583 19.3942L34.35 19.5308L24.8292 31.5308L24.8276 31.5328C24.5853 31.8349 24.2755 32.0781 23.923 32.2452C23.5706 32.4122 23.1841 32.4991 22.7928 32.5M34.4583 19.3942L22.7917 32M34.4583 19.3942V19.3237C34.6118 19.0986 34.7274 18.8502 34.7998 18.5877C34.8884 18.2666 34.9102 17.9314 34.8639 17.6018C34.8177 17.2721 34.7043 16.9554 34.5312 16.6696C34.3582 16.3839 34.1291 16.1351 33.8578 15.9365C33.5867 15.738 33.2785 15.5935 32.9511 15.5103C32.6237 15.4271 32.2829 15.4067 31.9476 15.4501C31.6124 15.4934 31.2885 15.5999 30.9945 15.764C30.7005 15.9281 30.4416 16.147 30.2335 16.409L30.2322 16.4106L22.743 25.9207M34.4583 19.3942L19.7425 22.2451M22.7928 32.5L22.7917 32M22.7928 32.5C22.7933 32.5 22.7938 32.5 22.7943 32.5L22.7917 32M22.7928 32.5C22.4042 32.5018 22.0195 32.4187 21.6678 32.2563C21.3155 32.0936 21.0047 31.8552 20.7598 31.5577L20.7587 31.5564L15.6753 25.3364L15.6741 25.3349C15.4641 25.0759 15.3084 24.7786 15.2169 24.4596C15.1253 24.1406 15.1001 23.807 15.1427 23.4782C15.1854 23.1493 15.295 22.8327 15.4645 22.5463C15.6339 22.26 15.8596 22.0099 16.1278 21.8095C16.6687 21.4052 17.3512 21.2259 18.0255 21.3065C18.3598 21.3465 18.6835 21.4494 18.978 21.61C19.2722 21.7705 19.532 21.9857 19.7419 22.2443L19.7415 22.2438L19.3542 22.56M22.7917 32C22.4752 32.0016 22.1625 31.934 21.8774 31.8023C21.5922 31.6707 21.342 31.4783 21.1458 31.24L16.0625 25.02C15.8942 24.8125 15.7702 24.5752 15.6975 24.3217C15.6247 24.0682 15.6047 23.8034 15.6386 23.5425C15.6724 23.2816 15.7595 23.0296 15.8948 22.801C16.0301 22.5723 16.2109 22.3715 16.4271 22.21C16.8636 21.8838 17.4172 21.7374 17.9661 21.803C18.2379 21.8355 18.5004 21.9191 18.7386 22.049C18.9767 22.1789 19.1859 22.3525 19.3542 22.56M19.3542 22.56L19.7425 22.2451M19.3542 22.56L22.4261 26.3232L22.743 25.9207M19.7425 22.2451L23.0669 26.3175L22.743 25.9207M19.7425 22.2451L22.743 25.9207M13.6956 7.79145C17.04 5.64617 20.974 4.49998 25 4.49998C27.673 4.49998 30.3193 5.00543 32.7878 5.98701C35.2563 6.96858 37.4979 8.40677 39.3851 10.2185C41.2723 12.0303 42.7682 14.18 43.7884 16.5444C44.8086 18.9088 45.3333 21.4421 45.3333 24C45.3333 27.8521 44.1436 31.6194 41.9119 34.8258C39.68 38.0323 36.5056 40.5346 32.7878 42.013C29.0699 43.4914 24.9776 43.8785 21.0294 43.1246C17.0813 42.3706 13.4573 40.5102 10.6149 37.7814C7.77264 35.0529 5.83952 31.579 5.05657 27.8003C4.27366 24.0218 4.67528 20.105 6.2116 16.5444C7.74803 12.9835 10.3514 9.93661 13.6956 7.79145Z" fill="#7A9D40" stroke="#C0D0C0"/>
</svg>
