<svg width="30" height="30" viewBox="0 0 30 30" fill="none" xmlns="http://www.w3.org/2000/svg">
<path d="M20.8902 9.26772C21.6683 10.0458 21.6683 11.3072 20.8902 12.0853L13.5322 19.4433C13.2131 19.7624 12.8131 19.9888 12.3753 20.0983L10.0931 20.6689C9.7283 20.7601 9.39788 20.4296 9.48908 20.0649L10.0596 17.7827C10.1691 17.3448 10.3955 16.9449 10.7147 16.6257L18.0727 9.26772C18.8507 8.48968 20.1122 8.48968 20.8902 9.26772ZM17.3682 11.3808L11.4191 17.3301C11.2276 17.5216 11.0917 17.7616 11.026 18.0243L10.6568 19.5011L12.1337 19.1319C12.3964 19.0662 12.6363 18.9304 12.8278 18.7389L18.7768 12.7893L17.3682 11.3808ZM18.7771 9.9721L18.0725 10.6765L19.4811 12.085L20.1858 11.3809C20.5749 10.9918 20.5749 10.3611 20.1858 9.9721C19.7968 9.58308 19.1661 9.58308 18.7771 9.9721Z" fill="#C1694F"/>
<circle cx="15" cy="15" r="14.25" stroke="#C1694F" stroke-width="1.5"/>
</svg>
