<svg width="39" height="35" viewBox="0 0 39 35" fill="none" xmlns="http://www.w3.org/2000/svg">
<path d="M19.9667 7.57455L19.5 8.78878L19.0333 7.57455C14.6303 -3.88065 0.5 -0.128338 0.5 9.59136C0.5 12.2558 1.66348 15.1487 3.47015 18.0218C5.27192 20.8872 7.68254 23.6844 10.1063 26.1463C12.5282 28.6063 14.9519 30.7202 16.7711 32.2196C17.6804 32.969 18.4377 33.5641 18.967 33.9715C19.1852 34.1394 19.3647 34.2754 19.5 34.377C19.6353 34.2754 19.8148 34.1394 20.033 33.9715C20.5623 33.5641 21.3196 32.969 22.2289 32.2196C24.0481 30.7202 26.4718 28.6063 28.8937 26.1463C31.3175 23.6844 33.7281 20.8872 35.5299 18.0218C37.3365 15.1487 38.5 12.2558 38.5 9.59136C38.5 -0.128338 24.3697 -3.88065 19.9667 7.57455Z" fill="#DD2E44" stroke="#FF9FAE"/>
</svg>
