<svg width="37" height="36" viewBox="0 0 37 36" fill="none" xmlns="http://www.w3.org/2000/svg">
<path d="M30.258 23.1901C29.8848 23.5493 29.2816 23.5493 28.9085 23.1901L27.5589 21.8947C27.1848 21.5365 27.1848 20.9566 27.5589 20.5993L30.258 18.0084C30.6312 17.6502 31.2343 17.6502 31.6075 18.0084L32.957 19.3039C33.3312 19.6611 33.3312 20.2411 32.957 20.5993L30.258 23.1901Z" fill="#66757F"/>
<path d="M15.9419 9.448C15.5687 9.80713 14.9655 9.80713 14.5924 9.448L13.2428 8.15257C12.8687 7.79436 12.8687 7.21444 13.2428 6.85715L15.9419 4.26629C16.3151 3.90808 16.9182 3.90808 17.2914 4.26629L18.6409 5.56172C19.0151 5.91902 19.0151 6.49894 18.6409 6.85715L15.9419 9.448Z" fill="#66757F"/>
<path d="M3.53462 21.5154C5.44343 21.5154 14.0331 22.4316 14.0331 22.4316C14.0331 22.4316 14.9875 30.6768 14.9875 32.5091C14.9875 34.3414 13.0787 34.3414 12.1243 33.4253C11.1699 32.5091 8.30665 27.9284 8.30665 27.9284C8.30665 27.9284 3.53462 25.18 2.58021 24.2638C1.62581 23.3477 1.62581 21.5154 3.53462 21.5154Z" fill="#55ACEE"/>
<path d="M5.44344 6.89284C8.30665 6.85711 29.3036 7.77325 29.3036 7.77325C29.3036 7.77325 30.1854 27.9284 30.2217 30.6768C30.258 33.4253 27.5856 34.3432 26.5358 30.6777C25.486 27.0123 21.6683 15.1024 21.6683 15.1024C21.6683 15.1024 8.3496 11.0567 5.43867 10.4282C1.62582 9.60554 2.58022 6.92857 5.44344 6.89284Z" fill="#55ACEE"/>
<path d="M27.3948 4.10869C29.3036 2.2764 34.0756 1.36026 35.03 2.2764C35.9844 3.19254 35.03 7.77326 33.1212 9.60555C31.2124 11.4378 14.9875 26.0961 14.9875 26.0961C14.9875 26.0961 8.78385 30.2188 7.35224 28.8445C5.92063 27.4703 10.2155 21.5154 10.2155 21.5154C10.2155 21.5154 25.4859 5.94097 27.3948 4.10869Z" fill="#CCD6DD"/>
<path d="M14.9875 21.5154C14.9875 21.5154 15.4647 21.9735 11.1699 26.0961C6.87505 30.2187 6.39785 29.7607 6.39785 29.7607C6.39785 29.7607 5.92065 29.3026 10.2155 25.18C14.5103 21.0573 14.9875 21.5154 14.9875 21.5154Z" fill="#66757F"/>
<path d="M29.3036 5.02483C30.885 5.02483 32.1668 6.25521 32.1668 7.77325H32.9351C33.0439 7.48467 33.1212 7.18234 33.1212 6.85711C33.1212 5.33906 31.8394 4.10868 30.258 4.10868C29.9191 4.10868 29.6032 4.18289 29.3036 4.28733V5.02483Z" fill="#66757F"/>
</svg>
