<svg width="31" height="30" viewBox="0 0 31 30" fill="none" xmlns="http://www.w3.org/2000/svg">
<g clip-path="url(#clip0_26_9)">
<path d="M18.1476 13.6364V21.8182M1.64758 6.81819H28.6476H1.64758ZM25.6476 6.81819V25.9091C25.6476 26.6324 25.3315 27.3261 24.7689 27.8376C24.2063 28.349 23.4432 28.6364 22.6476 28.6364H7.64758C6.85193 28.6364 6.08887 28.349 5.52626 27.8376C4.96365 27.3261 4.64758 26.6324 4.64758 25.9091V6.81819H25.6476ZM9.14758 6.81819V4.09092C9.14758 3.3676 9.46365 2.67391 10.0263 2.16245C10.5889 1.65098 11.3519 1.36365 12.1476 1.36365L18.1476 1.36365C18.9432 1.36365 19.7063 1.65098 20.2689 2.16245C20.8315 2.67391 21.1476 3.3676 21.1476 4.09092V6.81819H9.14758ZM12.1476 13.6364V21.8182V13.6364Z" stroke="#432C26" stroke-opacity="0.61" stroke-width="2" stroke-linecap="round" stroke-linejoin="round"/>
</g>
<defs>
<clipPath id="clip0_26_9">
<rect width="30" height="30" fill="white" transform="translate(0.147583)"/>
</clipPath>
</defs>
</svg>
